HIERARCHY
ROOT joint_Root
{
	OFFSET 0.0 0.0 0.0
	CHANNELS 6 Xposition Yposition Zposition Zrotation Xrotation Yrotation 
	JOINT Hips
	{
		OFFSET -0.726466 93.3139 -2.00062
		CHANNELS 6 Xposition Yposition Zposition Zrotation Xrotation Yrotation 
		JOINT Spine
		{
			OFFSET 15.7357 0.0 0.0
			CHANNELS 6 Xposition Yposition Zposition Zrotation Xrotation Yrotation 
			JOINT Chest
			{
				OFFSET 8.98455 -0.406207 0.0
				CHANNELS 6 Xposition Yposition Zposition Zrotation Xrotation Yrotation 
				JOINT Neck
				{
					OFFSET 16.3773 0.0 0.0
					CHANNELS 6 Xposition Yposition Zposition Zrotation Xrotation Yrotation 
					JOINT Head
					{
						OFFSET 6.45672 0.0 0.0
						CHANNELS 6 Xposition Yposition Zposition Zrotation Xrotation Yrotation 
						End Site
						{
							OFFSET 0.0 0.0 0.0
						}
					}
				}
				JOINT Shoulder_L
				{
					OFFSET 12.9942 -0.242716 4.98039
					CHANNELS 6 Xposition Yposition Zposition Zrotation Xrotation Yrotation 
					JOINT UpperArm_L
					{
						OFFSET 5.34809 0.0 0.0
						CHANNELS 6 Xposition Yposition Zposition Zrotation Xrotation Yrotation 
						JOINT LowerArm_L
						{
							OFFSET 24.3286 1.87007e-05 0.0
							CHANNELS 6 Xposition Yposition Zposition Zrotation Xrotation Yrotation 
							JOINT Hand_L
							{
								OFFSET 22.2916 0.0 0.0
								CHANNELS 6 Xposition Yposition Zposition Zrotation Xrotation Yrotation 
								End Site
								{
									OFFSET 0.0 0.0 0.0
								}
							}
						}
					}
				}
				JOINT Shoulder_R
				{
					OFFSET 12.9945 -0.242716 -4.98039
					CHANNELS 6 Xposition Yposition Zposition Zrotation Xrotation Yrotation 
					JOINT UpperArm_R
					{
						OFFSET -5.34813 0.0 0.0
						CHANNELS 6 Xposition Yposition Zposition Zrotation Xrotation Yrotation 
						JOINT LowerArm_R
						{
							OFFSET -24.3289 0.000322201 0.0
							CHANNELS 6 Xposition Yposition Zposition Zrotation Xrotation Yrotation 
							JOINT Hand_R
							{
								OFFSET -22.2915 -0.000108084 0.0
								CHANNELS 6 Xposition Yposition Zposition Zrotation Xrotation Yrotation 
								End Site
								{
									OFFSET 0.0 0.0 0.0
								}
							}
						}
					}
				}
			}
		}
		JOINT UpperLeg_L
		{
			OFFSET -2.19248 -6.46944 0.0
			CHANNELS 6 Xposition Yposition Zposition Zrotation Xrotation Yrotation 
			JOINT LowerLeg_L
			{
				OFFSET 39.0811 0.0 -1.23785e-05
				CHANNELS 6 Xposition Yposition Zposition Zrotation Xrotation Yrotation 
				JOINT Foot_L
				{
					OFFSET 40.9854 0.0 -1.26872e-05
					CHANNELS 6 Xposition Yposition Zposition Zrotation Xrotation Yrotation 
					JOINT Toes_L
					{
						OFFSET 11.7543 0.0 0.0
						CHANNELS 6 Xposition Yposition Zposition Zrotation Xrotation Yrotation 
						End Site
						{
							OFFSET 0.0 0.0 0.0
						}
					}
				}
			}
		}
		JOINT UpperLeg_R
		{
			OFFSET -2.19251 6.46944 0.0
			CHANNELS 6 Xposition Yposition Zposition Zrotation Xrotation Yrotation 
			JOINT LowerLeg_R
			{
				OFFSET -39.0811 -0.00228153 -0.0401928
				CHANNELS 6 Xposition Yposition Zposition Zrotation Xrotation Yrotation 
				JOINT Foot_R
				{
					OFFSET -40.9854 0.0 0.0
					CHANNELS 6 Xposition Yposition Zposition Zrotation Xrotation Yrotation 
					JOINT Toes_R
					{
						OFFSET -11.7543 0.0 0.0
						CHANNELS 6 Xposition Yposition Zposition Zrotation Xrotation Yrotation 
						End Site
						{
							OFFSET 0.0 0.0 0.0
						}
					}
				}
			}
		}
	}
}
MOTION
Frames:	6
Frame Time:	0.0333333
0.000000 0.000000 0.000000 0.000000 0.000000 -0.000000 -1.317470 92.881300 -0.685945 89.034500 -2.397090 2.354200 15.735700 0.000005 -0.000001 92.413800 86.251100 -92.379500 8.984550 -0.406207 -0.000000 -0.275014 0.313293 0.069393 16.377300 -0.000001 -0.000001 3.131840 -2.535930 2.454650 6.456720 -0.000001 -0.000000 7.741420 -2.077680 -4.149960 12.994200 -0.242716 4.980390 -90.783400 2.489030 -72.523100 5.348090 -0.000007 -0.000001 -67.925000 36.333400 -12.426600 24.328600 0.000019 0.000005 4.816770 11.224300 -23.406300 22.291600 -0.000001 0.000005 1.385550 5.464590 -5.171160 12.994500 -0.242716 -4.980390 87.612900 7.808620 -72.942400 -5.348130 -0.000001 -0.000004 -64.429300 42.056600 -11.324000 -24.328900 0.000322 -0.000009 3.160570 8.826810 -19.797400 -22.291500 -0.000108 -0.000004 6.590170 5.362580 -1.758170 -2.192480 -6.469440 -0.000000 -176.385000 -7.526230 -1.671470 39.081100 -0.000007 -0.000012 -0.060889 0.194796 17.358000 40.985400 -0.000006 -0.000013 -0.534730 4.034870 -63.461100 11.754300 -0.000000 0.000003 -0.000001 -0.000013 -16.578000 -2.192510 6.469440 -0.000001 179.814000 9.846090 179.833000 -39.081100 -0.002282 -0.040193 -0.051415 0.202813 15.105800 -40.985400 0.000008 0.000006 1.775550 7.303680 -63.003100 -11.754300 -0.000006 -0.000006 -0.006003 -0.070860 -19.457000
0.000000 0.000000 0.000000 0.000000 0.000000 -0.000000 -1.322980 92.887200 -0.687839 88.990100 -2.470050 2.338660 15.735700 0.000005 -0.000001 92.698300 86.244500 -92.624800 8.984550 -0.406207 -0.000000 -0.263548 0.348364 0.147742 16.377300 -0.000001 -0.000001 3.141480 -2.563650 2.483020 6.456720 -0.000001 -0.000000 7.579900 -2.174090 -4.240030 12.994200 -0.242716 4.980390 -90.868500 2.714300 -72.249100 5.348090 -0.000007 -0.000001 -67.789000 32.853100 -11.979200 24.328600 0.000019 0.000005 6.444960 12.630300 -27.323700 22.291600 -0.000001 0.000005 0.788663 5.480010 -5.746470 12.994500 -0.242716 -4.980390 87.641100 7.708950 -72.928700 -5.348130 -0.000001 -0.000004 -64.592500 41.873100 -11.287600 -24.328900 0.000322 -0.000009 3.139740 8.779140 -19.774500 -22.291500 -0.000108 -0.000004 6.748900 5.365760 -1.855850 -2.192480 -6.469440 -0.000000 -176.356000 -7.435650 -1.662150 39.081100 -0.000007 -0.000012 -0.059894 0.191856 17.337300 40.985400 -0.000006 -0.000013 -0.561661 3.881590 -63.462800 11.754300 -0.000000 0.000003 -0.000001 -0.000019 -16.578200 -2.192510 6.469440 -0.000001 179.866000 9.851190 179.866000 -39.081100 -0.002282 -0.040193 -0.050905 0.202431 14.998500 -40.985400 0.000008 0.000006 1.782730 7.344550 -62.944200 -11.754300 -0.000006 -0.000006 -0.005990 -0.070744 -19.452300
0.000000 0.000000 0.000000 0.000000 0.000000 -0.000000 -1.335050 92.884900 -0.690197 89.009600 -2.523870 2.361830 15.735700 0.000005 -0.000001 93.782500 86.210400 -93.685400 8.984550 -0.406207 -0.000000 -0.203678 0.493123 0.195029 16.377300 -0.000001 -0.000001 3.205910 -2.536860 2.541690 6.456720 -0.000001 -0.000000 7.268700 -2.345930 -4.280280 12.994200 -0.242716 4.980390 -90.986500 2.999300 -71.784700 5.348090 -0.000007 -0.000001 -66.250900 29.783800 -12.407400 24.328600 0.000019 0.000005 5.301790 8.028210 -33.613700 22.291600 -0.000001 0.000005 2.719250 5.505210 -6.739730 12.994500 -0.242716 -4.980390 87.669000 7.602660 -72.898500 -5.348130 -0.000001 -0.000004 -64.812300 41.554300 -11.092600 -24.328900 0.000322 -0.000009 3.146280 8.692210 -19.993700 -22.291500 -0.000108 -0.000004 6.726630 5.362460 -1.754650 -2.192480 -6.469440 -0.000000 -176.366000 -7.411740 -1.634940 39.081100 -0.000007 -0.000012 -0.060617 0.194231 17.332300 40.985400 -0.000006 -0.000013 -0.586241 3.804860 -63.459400 11.754300 -0.000000 0.000003 -0.000001 -0.000023 -16.578400 -2.192510 6.469440 -0.000001 179.849000 9.830160 179.865000 -39.081100 -0.002282 -0.040193 -0.049988 0.198343 15.046500 -40.985400 0.000008 0.000006 1.802790 7.400640 -62.971200 -11.754300 -0.000006 -0.000006 -0.006085 -0.071610 -19.487600
0.000000 0.000000 0.000000 0.000000 0.000000 -0.000000 -1.364260 92.888900 -0.722931 89.027600 -2.423620 2.361610 15.735700 0.000005 -0.000001 95.042700 86.182900 -94.934300 8.984550 -0.406207 -0.000000 -0.162023 0.663369 0.217637 16.377300 -0.000001 -0.000001 3.369710 -2.482700 2.623200 6.456720 -0.000001 -0.000000 7.006140 -2.515060 -4.160440 12.994200 -0.242716 4.980390 -91.054900 3.118370 -71.299100 5.348090 -0.000007 -0.000001 -63.768600 26.209100 -13.936600 24.328600 0.000019 0.000005 4.110960 4.443970 -42.854600 22.291600 -0.000001 0.000005 5.059740 5.534790 -8.000820 12.994500 -0.242716 -4.980390 87.696300 7.536650 -72.948600 -5.348130 -0.000001 -0.000004 -64.997100 41.386300 -10.817800 -24.328900 0.000322 -0.000009 3.153370 8.645880 -20.133200 -22.291500 -0.000108 -0.000004 6.682570 5.363650 -1.791110 -2.192480 -6.469440 -0.000000 -176.372000 -7.333050 -1.657990 39.081100 -0.000007 -0.000012 -0.059355 0.190545 17.301900 40.985400 -0.000006 -0.000013 -0.599508 3.838580 -63.410900 11.754300 -0.000000 0.000003 -0.000003 -0.000042 -16.579100 -2.192510 6.469440 -0.000001 179.847000 9.975150 179.846000 -39.081100 -0.002282 -0.040193 -0.049952 0.198180 15.048700 -40.985400 0.000008 0.000006 1.832970 7.443740 -62.959300 -11.754300 -0.000006 -0.000006 -0.005942 -0.070311 -19.434600
0.000000 0.000000 0.000000 0.000000 0.000000 -0.000000 -1.426390 92.883400 -0.770774 89.019600 -2.220920 2.413730 15.735700 0.000005 -0.000001 96.453800 86.156600 -96.330500 8.984550 -0.406207 -0.000000 -0.128762 0.855312 0.247432 16.377300 -0.000001 -0.000001 3.650050 -2.330120 2.571880 6.456720 -0.000001 -0.000000 7.012070 -2.598310 -3.840050 12.994200 -0.242716 4.980390 -90.971900 2.809790 -70.911700 5.348090 -0.000007 -0.000001 -61.000000 22.143200 -17.050200 24.328600 0.000019 0.000005 4.579620 3.448140 -53.095500 22.291600 -0.000001 0.000005 7.515970 5.560870 -9.226070 12.994500 -0.242716 -4.980390 87.717600 7.503750 -73.027700 -5.348130 -0.000001 -0.000004 -65.037800 41.531800 -10.662700 -24.328900 0.000322 -0.000009 3.209150 8.863630 -20.001800 -22.291500 -0.000108 -0.000004 6.615120 5.363880 -1.798030 -2.192480 -6.469440 -0.000000 -176.302000 -7.296610 -1.705700 39.081100 -0.000007 -0.000012 -0.061696 0.196988 17.390400 40.985400 -0.000006 -0.000013 -0.612943 4.029560 -63.402500 11.754300 -0.000000 0.000003 -0.000002 -0.000027 -16.578600 -2.192510 6.469440 -0.000001 179.881000 10.114700 179.846000 -39.081100 -0.002282 -0.040193 -0.051080 0.201409 15.117400 -40.985400 0.000008 0.000006 1.868640 7.400050 -62.981700 -11.754300 -0.000006 -0.000006 -0.005886 -0.069798 -19.413700
0.000000 0.000000 0.000000 0.000000 0.000000 -0.000000 -1.481320 92.896500 -0.820904 89.039300 -1.848790 2.443230 15.735700 0.000005 -0.000001 97.389500 86.161300 -97.234600 8.984550 -0.406207 -0.000000 -0.153605 0.976485 0.310954 16.377300 -0.000001 -0.000001 4.039860 -2.154110 2.418140 6.456720 -0.000001 -0.000000 7.105840 -2.524620 -3.683250 12.994200 -0.242716 4.980390 -90.840200 2.400650 -70.703400 5.348090 -0.000007 -0.000001 -58.446400 16.960700 -21.432400 24.328600 0.000019 0.000005 5.213810 2.650940 -63.122300 22.291600 -0.000001 0.000005 9.373240 5.573880 -9.887500 12.994500 -0.242716 -4.980390 87.735100 7.459560 -73.057200 -5.348130 -0.000001 -0.000004 -65.019900 41.667300 -10.619300 -24.328900 0.000322 -0.000009 3.222190 9.083530 -19.631900 -22.291500 -0.000108 -0.000004 6.607170 5.364830 -1.827260 -2.192480 -6.469440 -0.000000 -176.275000 -7.172240 -1.727380 39.081100 -0.000007 -0.000012 -0.060894 0.195431 17.306200 40.985400 -0.000006 -0.000013 -0.623916 4.242600 -63.279600 11.754300 -0.000000 0.000003 -0.000001 -0.000018 -16.578200 -2.192510 6.469440 -0.000001 179.908000 10.330100 179.933000 -39.081100 -0.002282 -0.040193 -0.050050 0.199257 14.997200 -40.985400 0.000008 0.000006 1.883600 7.228950 -62.923700 -11.754300 -0.000006 -0.000006 -0.006064 -0.071418 -19.479700
